<svg xmlns="http://www.w3.org/2000/svg" width="402" height="403" viewBox="0 0 402 403">
  <g id="ibm-circle" transform="translate(-1287 -5650.03)">
    <g id="Path_593" data-name="Path 593" transform="translate(1287 5650.03)">
      <path d="M 201 398 C 187.69921875 398 174.4082183837891 396.6570129394531 161.4962768554688 394.0082092285156 C 148.9148864746094 391.4273376464844 136.5393829345703 387.576171875 124.7136077880859 382.5618286132813 C 113.1011657714844 377.6380004882813 101.9004974365234 371.5432739257813 91.42277526855469 364.4470520019531 C 81.04311370849609 357.4172668457031 71.28227996826172 349.3437805175781 62.41144561767578 340.4508972167969 C 53.54044342041016 331.5577697753906 45.48672103881836 321.7723388671875 38.4739990234375 311.3663330078125 C 31.39472198486328 300.8615417480469 25.31455612182617 289.6318969726563 20.40233421325684 277.9892272949219 C 15.39966678619385 266.1322326660156 11.55755519866943 253.7240600585938 8.982610702514648 241.1092834472656 C 6.339944362640381 228.1628265380859 5 214.8363342285156 5 201.5 C 5 188.1636657714844 6.339944362640381 174.8371734619141 8.982610702514648 161.8907165527344 C 11.55755519866943 149.2759399414063 15.39966678619385 136.8677825927734 20.40233421325684 125.0107803344727 C 25.31455612182617 113.3681106567383 31.39472198486328 102.1384429931641 38.4739990234375 91.6336669921875 C 45.48672103881836 81.22766876220703 53.54044342041016 71.44222259521484 62.41144561767578 62.54911041259766 C 71.28227996826172 53.65622329711914 81.04311370849609 45.58272171020508 91.42277526855469 38.55294418334961 C 101.9004974365234 31.45672225952148 113.1011657714844 25.36199951171875 124.7136077880859 20.43816757202148 C 136.5393829345703 15.42383289337158 148.9148864746094 11.57266712188721 161.4962768554688 8.991777420043945 C 174.4082183837891 6.342999935150146 187.69921875 5 201 5 C 214.30078125 5 227.5917816162109 6.342999935150146 240.5037231445313 8.991777420043945 C 253.0851135253906 11.57266712188721 265.4606018066406 15.42383289337158 277.286376953125 20.43816757202148 C 288.8988342285156 25.36199951171875 300.0994873046875 31.45672225952148 310.5772094726563 38.55294418334961 C 320.9568786621094 45.58272171020508 330.7177124023438 53.65622329711914 339.5885620117188 62.54911041259766 C 348.4595642089844 71.44222259521484 356.5132751464844 81.22766876220703 363.5260009765625 91.6336669921875 C 370.6052856445313 102.1384429931641 376.6854553222656 113.3681106567383 381.59765625 125.0107803344727 C 386.600341796875 136.8677825927734 390.4424438476563 149.2759399414063 393.0173950195313 161.8907165527344 C 395.6600646972656 174.8371734619141 397 188.1636657714844 397 201.5 C 397 214.8363342285156 395.6600646972656 228.1628265380859 393.0173950195313 241.1092834472656 C 390.4424438476563 253.7240600585938 386.600341796875 266.1322326660156 381.59765625 277.9892272949219 C 376.6854553222656 289.6318969726563 370.6052856445313 300.8615417480469 363.5260009765625 311.3663330078125 C 356.5132751464844 321.7723388671875 348.4595642089844 331.5577697753906 339.5885620117188 340.4508972167969 C 330.7177124023438 349.3437805175781 320.9568786621094 357.4172668457031 310.5772094726563 364.4470520019531 C 300.0994873046875 371.5432739257813 288.8988342285156 377.6380004882813 277.286376953125 382.5618286132813 C 265.4606018066406 387.576171875 253.0851135253906 391.4273376464844 240.5037231445313 394.0082092285156 C 227.5917816162109 396.6570129394531 214.30078125 398 201 398 Z" stroke="none"/>
      <path d="M 201 10 C 95.68222045898438 10 10 95.90652465820313 10 201.5 C 10 307.0934753417969 95.68222045898438 393 201 393 C 306.3177490234375 393 392 307.0934753417969 392 201.5 C 392 95.90652465820313 306.3177490234375 10 201 10 M 201 0 C 312.0092163085938 0 402 90.21466064453125 402 201.5 C 402 312.7853393554688 312.0092163085938 403 201 403 C 89.99075317382813 403 0 312.7853393554688 0 201.5 C 0 90.21466064453125 89.99075317382813 0 201 0 Z" stroke="none" fill="#fff"/>
    </g>
    <path id="ibm-icon" d="M0,9.6v8.623H61.324V9.6Zm69.986,0v8.623h87.37S148.428,9.6,136.616,9.6ZM174.5,9.6v8.623h52.859L224.212,9.6Zm90.756,0-3.15,8.623h52.367V9.6ZM0,26.363v8.623H61.324V26.363Zm69.986.01v8.613h97.508s-1.142-6.634-3.12-8.613Zm104.517,0v8.613h58.666l-2.9-8.613Zm84.486,0-2.9,8.613h58.42V26.373ZM17.718,43.126v8.633H44.266V43.126Zm69.986,0v8.633h26.479V43.126Zm52.367,0v8.633h26.557a29.55,29.55,0,0,0,1.673-8.633Zm52.13,0v8.633h46.992l-3.15-8.633Zm61.078,0-3.15,8.633h47.14V43.126ZM17.718,59.9v8.623H44.266V59.9Zm69.986,0v8.623h67.919s5.67-4.43,7.481-8.623Zm104.517,0v8.623h26.548V63.738l1.673,4.794h48.626l1.811-4.794v4.794h26.39V59.909H247.423l-2.658,7.3-2.658-7.3ZM17.718,76.673V85.3H44.266V76.673Zm69.986,0V85.3h75.3c-1.811-4.183-7.481-8.623-7.481-8.623Zm104.517,0V85.3h26.548V76.673Zm31.381,0,3.209,8.623h36.47l2.953-8.623Zm47.307,0V85.3h26.361V76.673ZM17.718,93.436v8.623H44.266V93.436Zm69.986,0v8.623h26.479V93.436Zm52.367,0v8.623h28.25a29.534,29.534,0,0,0-1.673-8.623Zm52.13,0v8.623h26.548V93.436Zm37.4,0,3.11,8.623h24.451l3.15-8.623Zm41.283,0v8.623h26.38V93.436ZM.492,110.2v8.633H61.816V110.2Zm69.524,0v8.633h94.4c1.988-1.969,3.12-8.633,3.12-8.633Zm104.989,0v8.633h43.7V110.2Zm60.586,0,3.2,8.633h12.442l3-8.633Zm35.239,0v8.633h44.157V110.2ZM.492,126.972v8.623H61.816v-8.623Zm69.524,0v8.613h66.64c11.812,0,20.75-8.613,20.75-8.613Zm104.989,0v8.623h43.7v-8.623Zm66.64,0,3.081,8.593.532.01,3.13-8.613Zm29.176,0v8.623h44.167v-8.623Z" transform="translate(1340.693 5778.947)" fill="#1f70c1"/>
  </g>
</svg>
