<svg xmlns="http://www.w3.org/2000/svg" xmlns:xlink="http://www.w3.org/1999/xlink" width="804" height="893.393" viewBox="0 0 804 893.393">
  <defs>
    <linearGradient id="linear-gradient" x1="0.5" x2="0.823" y2="0.756" gradientUnits="objectBoundingBox">
      <stop offset="0" stop-color="red"/>
      <stop offset="0.284" stop-color="#fca311"/>
      <stop offset="0.602" stop-color="#1abb20"/>
      <stop offset="1" stop-color="#008fff"/>
    </linearGradient>
  </defs>
  <g id="skills-img" transform="translate(-822 -97)">
    <g id="skillway3" transform="translate(822 214)" fill="#619b8a" stroke="#707070" stroke-width="1">
      <rect width="804" height="32" rx="16" stroke="none"/>
      <rect x="0.5" y="0.5" width="803" height="31" rx="15.5" fill="none"/>
    </g>
    <g id="skillway2" transform="translate(822 528)" fill="#619b8a" stroke="#707070" stroke-width="1">
      <rect width="804" height="33" rx="16.5" stroke="none"/>
      <rect x="0.5" y="0.5" width="803" height="32" rx="16" fill="none"/>
    </g>
    <g id="skillway" transform="translate(822 835)" fill="#619b8a" stroke="#707070" stroke-width="1">
      <rect width="804" height="32" rx="16" stroke="none"/>
      <rect x="0.5" y="0.5" width="803" height="31" rx="15.5" fill="none"/>
    </g>
    <g id="Ellipse_10" data-name="Ellipse 10" transform="translate(949 214)" stroke="#707070" stroke-width="1">
      <ellipse cx="15.5" cy="16" rx="15.5" ry="16" stroke="none"/>
      <ellipse cx="15.5" cy="16" rx="15" ry="15.5" fill="none"/>
    </g>
    <g id="Ellipse_14" data-name="Ellipse 14" transform="translate(949 528)" stroke="#707070" stroke-width="1">
      <ellipse cx="15.5" cy="16.5" rx="15.5" ry="16.5" stroke="none"/>
      <ellipse cx="15.5" cy="16.5" rx="15" ry="16" fill="none"/>
    </g>
    <g id="Ellipse_16" data-name="Ellipse 16" transform="translate(949 835)" stroke="#707070" stroke-width="1">
      <circle cx="16" cy="16" r="16" stroke="none"/>
      <circle cx="16" cy="16" r="15.5" fill="none"/>
    </g>
    <g id="Path_198" data-name="Path 198" transform="translate(1121.814 212.949)">
      <path d="M 15.73561096191406 32.25053787231445 C 11.6698112487793 32.25053787231445 7.846291065216064 30.60174942016602 4.969380855560303 27.60788917541504 C 2.087260961532593 24.60860824584961 0.5000009536743164 20.61944961547852 0.5000009536743164 16.37526893615723 C 0.5000009536743164 12.13108921051025 2.087260961532593 8.141928672790527 4.969380855560303 5.142649173736572 C 7.846291065216064 2.148788928985596 11.6698112487793 0.499998927116394 15.73561096191406 0.499998927116394 C 19.80141067504883 0.499998927116394 23.62493133544922 2.148788928985596 26.50184059143066 5.142649173736572 C 29.38396072387695 8.141928672790527 30.97122001647949 12.13108921051025 30.97122001647949 16.37526893615723 C 30.97122001647949 20.61944961547852 29.38396072387695 24.60860824584961 26.50184059143066 27.60788917541504 C 23.62493133544922 30.60174942016602 19.80141067504883 32.25053787231445 15.73561096191406 32.25053787231445 Z" stroke="none"/>
      <path d="M 15.73561096191406 0.9999980926513672 C 11.8071403503418 0.9999980926513672 8.111661911010742 2.594259262084961 5.329900741577148 5.48908805847168 C 2.537721633911133 8.394769668579102 1.000001907348633 12.26088905334473 1.000001907348633 16.37526893615723 C 1.000001907348633 20.48964881896973 2.537721633911133 24.35577011108398 5.329900741577148 27.26144790649414 C 8.111661911010742 30.15627861022949 11.8071403503418 31.75053977966309 15.73561096191406 31.75053977966309 C 19.66408157348633 31.75053977966309 23.35956192016602 30.15627861022949 26.14132118225098 27.26144790649414 C 28.93350028991699 24.35577011108398 30.47122192382813 20.48964881896973 30.47122192382813 16.37526893615723 C 30.47122192382813 12.26088905334473 28.93350028991699 8.394769668579102 26.14132118225098 5.48908805847168 C 23.35956192016602 2.594259262084961 19.66408157348633 0.9999980926513672 15.73561096191406 0.9999980926513672 M 15.73561096191406 0 C 24.42615127563477 0 31.47122001647949 7.331459045410156 31.47122001647949 16.37526893615723 C 31.47122001647949 25.4190788269043 24.42615127563477 32.75053787231445 15.73561096191406 32.75053787231445 C 7.045070648193359 32.75053787231445 1.9073486328125e-06 25.4190788269043 1.9073486328125e-06 16.37526893615723 C 1.9073486328125e-06 7.331459045410156 7.045070648193359 0 15.73561096191406 0 Z" stroke="none" fill="#707070"/>
    </g>
    <g id="Path_199" data-name="Path 199" transform="translate(1121.814 527.397)">
      <path d="M 15.73561096191406 32.25053787231445 C 11.6698112487793 32.25053787231445 7.846291065216064 30.60174942016602 4.969380855560303 27.60788917541504 C 2.087260961532593 24.60860824584961 0.5000009536743164 20.61944961547852 0.5000009536743164 16.37526893615723 C 0.5000009536743164 12.13108921051025 2.087260961532593 8.141928672790527 4.969380855560303 5.142649173736572 C 7.846291065216064 2.148788928985596 11.6698112487793 0.499998927116394 15.73561096191406 0.499998927116394 C 19.80141067504883 0.499998927116394 23.62493133544922 2.148788928985596 26.50184059143066 5.142649173736572 C 29.38396072387695 8.141928672790527 30.97122001647949 12.13108921051025 30.97122001647949 16.37526893615723 C 30.97122001647949 20.61944961547852 29.38396072387695 24.60860824584961 26.50184059143066 27.60788917541504 C 23.62493133544922 30.60174942016602 19.80141067504883 32.25053787231445 15.73561096191406 32.25053787231445 Z" stroke="none"/>
      <path d="M 15.73561096191406 0.9999980926513672 C 11.8071403503418 0.9999980926513672 8.111661911010742 2.594259262084961 5.329900741577148 5.48908805847168 C 2.537721633911133 8.394769668579102 1.000001907348633 12.26088905334473 1.000001907348633 16.37526893615723 C 1.000001907348633 20.48964881896973 2.537721633911133 24.35577011108398 5.329900741577148 27.26144790649414 C 8.111661911010742 30.15627861022949 11.8071403503418 31.75053977966309 15.73561096191406 31.75053977966309 C 19.66408157348633 31.75053977966309 23.35956192016602 30.15627861022949 26.14132118225098 27.26144790649414 C 28.93350028991699 24.35577011108398 30.47122192382813 20.48964881896973 30.47122192382813 16.37526893615723 C 30.47122192382813 12.26088905334473 28.93350028991699 8.394769668579102 26.14132118225098 5.48908805847168 C 23.35956192016602 2.594259262084961 19.66408157348633 0.9999980926513672 15.73561096191406 0.9999980926513672 M 15.73561096191406 0 C 24.42615127563477 0 31.47122001647949 7.331459045410156 31.47122001647949 16.37526893615723 C 31.47122001647949 25.4190788269043 24.42615127563477 32.75053787231445 15.73561096191406 32.75053787231445 C 7.045070648193359 32.75053787231445 1.9073486328125e-06 25.4190788269043 1.9073486328125e-06 16.37526893615723 C 1.9073486328125e-06 7.331459045410156 7.045070648193359 0 15.73561096191406 0 Z" stroke="none" fill="#707070"/>
    </g>
    <g id="Path_200" data-name="Path 200" transform="translate(1121.814 835.137)">
      <path d="M 15.73561096191406 32.25053787231445 C 11.6698112487793 32.25053787231445 7.846291065216064 30.60174942016602 4.969380855560303 27.60788917541504 C 2.087260961532593 24.60860824584961 0.5000009536743164 20.61944961547852 0.5000009536743164 16.37526893615723 C 0.5000009536743164 12.13108921051025 2.087260961532593 8.141928672790527 4.969380855560303 5.142649173736572 C 7.846291065216064 2.148788928985596 11.6698112487793 0.499998927116394 15.73561096191406 0.499998927116394 C 19.80141067504883 0.499998927116394 23.62493133544922 2.148788928985596 26.50184059143066 5.142649173736572 C 29.38396072387695 8.141928672790527 30.97122001647949 12.13108921051025 30.97122001647949 16.37526893615723 C 30.97122001647949 20.61944961547852 29.38396072387695 24.60860824584961 26.50184059143066 27.60788917541504 C 23.62493133544922 30.60174942016602 19.80141067504883 32.25053787231445 15.73561096191406 32.25053787231445 Z" stroke="none"/>
      <path d="M 15.73561096191406 0.9999980926513672 C 11.8071403503418 0.9999980926513672 8.111661911010742 2.594259262084961 5.329900741577148 5.48908805847168 C 2.537721633911133 8.394769668579102 1.000001907348633 12.26088905334473 1.000001907348633 16.37526893615723 C 1.000001907348633 20.48964881896973 2.537721633911133 24.35577011108398 5.329900741577148 27.26144790649414 C 8.111661911010742 30.15627861022949 11.8071403503418 31.75053977966309 15.73561096191406 31.75053977966309 C 19.66408157348633 31.75053977966309 23.35956192016602 30.15627861022949 26.14132118225098 27.26144790649414 C 28.93350028991699 24.35577011108398 30.47122192382813 20.48964881896973 30.47122192382813 16.37526893615723 C 30.47122192382813 12.26088905334473 28.93350028991699 8.394769668579102 26.14132118225098 5.48908805847168 C 23.35956192016602 2.594259262084961 19.66408157348633 0.9999980926513672 15.73561096191406 0.9999980926513672 M 15.73561096191406 0 C 24.42615127563477 0 31.47122001647949 7.331459045410156 31.47122001647949 16.37526893615723 C 31.47122001647949 25.4190788269043 24.42615127563477 32.75053787231445 15.73561096191406 32.75053787231445 C 7.045070648193359 32.75053787231445 1.9073486328125e-06 25.4190788269043 1.9073486328125e-06 16.37526893615723 C 1.9073486328125e-06 7.331459045410156 7.045070648193359 0 15.73561096191406 0 Z" stroke="none" fill="#707070"/>
    </g>
    <g id="Ellipse_12" data-name="Ellipse 12" transform="translate(1296 528)" stroke="#707070" stroke-width="1">
      <ellipse cx="15.5" cy="16.5" rx="15.5" ry="16.5" stroke="none"/>
      <ellipse cx="15.5" cy="16.5" rx="15" ry="16" fill="none"/>
    </g>
    <g id="Ellipse_15" data-name="Ellipse 15" transform="translate(1296 214)" stroke="#707070" stroke-width="1">
      <ellipse cx="15.5" cy="16" rx="15.5" ry="16" stroke="none"/>
      <ellipse cx="15.5" cy="16" rx="15" ry="15.5" fill="none"/>
    </g>
    <g id="Ellipse_13" data-name="Ellipse 13" transform="translate(1469 214)" stroke="#707070" stroke-width="1">
      <circle cx="16" cy="16" r="16" stroke="none"/>
      <circle cx="16" cy="16" r="15.5" fill="none"/>
    </g>
    <g id="Ellipse_17" data-name="Ellipse 17" transform="translate(1469 530)" stroke="#707070" stroke-width="1">
      <circle cx="16" cy="16" r="16" stroke="none"/>
      <circle cx="16" cy="16" r="15.5" fill="none"/>
    </g>
    <g id="Ellipse_18" data-name="Ellipse 18" transform="translate(1469 835)" stroke="#707070" stroke-width="1">
      <circle cx="16" cy="16" r="16" stroke="none"/>
      <circle cx="16" cy="16" r="15.5" fill="none"/>
    </g>
    <g id="Ellipse_19" data-name="Ellipse 19" transform="translate(1295 835)" stroke="#707070" stroke-width="1">
      <circle cx="16" cy="16" r="16" stroke="none"/>
      <circle cx="16" cy="16" r="15.5" fill="none"/>
    </g>
    <text id="C_lang." data-name="C lang." transform="translate(907 406)" fill="#fca311" font-size="22" font-family="-apple-system, BlinkMacSystemFont, 'Segoe UI', Roboto, Oxygen, Ubuntu, Cantarell, 'Open Sans', 'Helvetica Neue', sans-serif" letter-spacing="0.02em"><tspan x="-31.768" y="20">C lang.</tspan></text>
    <text id="UX_UI_Design" data-name="UX/UI Design" transform="translate(883 721)" fill="#fca311" font-size="22" font-family="-apple-system, BlinkMacSystemFont, 'Segoe UI', Roboto, Oxygen, Ubuntu, Cantarell, 'Open Sans', 'Helvetica Neue', sans-serif" letter-spacing="0.02em"><tspan x="-62.271" y="20">UX/UI Design</tspan></text>
    <text id="C_lang.-2" data-name="C++ lang." transform="translate(1078.652 628.962)" fill="#fca311" font-size="22" font-family="-apple-system, BlinkMacSystemFont, 'Segoe UI', Roboto, Oxygen, Ubuntu, Cantarell, 'Open Sans', 'Helvetica Neue', sans-serif" letter-spacing="0.02em"><tspan x="-43.186" y="20">C++ lang.</tspan></text>
    <text id="Data_Structure" data-name="Data Structure" transform="translate(1230 410)" fill="#fca311" font-size="22" font-family="-apple-system, BlinkMacSystemFont, 'Segoe UI', Roboto, Oxygen, Ubuntu, Cantarell, 'Open Sans', 'Helvetica Neue', sans-serif" letter-spacing="0.02em"><tspan x="-67.672" y="20">Data Structure</tspan></text>
    <text id="CSS3" transform="translate(1078 350)" fill="#fca311" font-size="22" font-family="-apple-system, BlinkMacSystemFont, 'Segoe UI', Roboto, Oxygen, Ubuntu, Cantarell, 'Open Sans', 'Helvetica Neue', sans-serif" letter-spacing="0.02em"><tspan x="-22.528" y="20">CSS3</tspan></text>
    <path id="c" d="M36.577,40.918a12.063,12.063,0,0,1-10.207,6.03c-6.018,0-11.058-5.245-11.058-11.508s5.04-11.508,11.058-11.508a12.063,12.063,0,0,1,10.207,6.03c1.457-5.632,4.434-10.324,9.251-13.035A25.823,25.823,0,0,0,26.369,8C11.8,8,0,20.282,0,35.441S11.8,62.882,26.369,62.882a25.823,25.823,0,0,0,19.458-8.929C41.011,51.242,38.033,46.55,36.577,40.918Z" transform="translate(941.943 447.831)" fill="#1b51a2"/>
    <path id="css3-alt-brands" d="M0,32,4.873,89.515,26.81,97.1l21.937-7.585L53.62,32ZM43.72,43.625,43.05,50.5l-16.1,7.164-.042.015H42.477L40.69,78.98,26.978,83.15l-13.8-4.243-.894-10.739h6.828l.447,5.565,7.345,1.933,7.638-2.238.517-8.951L11.841,64.4V64.39l-.028.015-.5-6.728,15.653-6.786.908-.392H10.71L9.9,43.625Z" transform="translate(1109.262 231.385)" fill="#2699fb"/>
    <path id="html5-brands" d="M0,32,4.873,89.515,26.74,97.1l22.007-7.585L53.62,32ZM43.036,50.585H17.371l.573,7.178h24.52l-1.9,21.564-13.67,3.923V83.3H26.74L12.958,79.328,12.12,68.314h6.661l.489,5.536,7.471,2.107,7.5-2.107.838-9.038H11.771L9.984,43.654H43.65Z" transform="translate(940.93 104.022)" fill="#dd5353"/>
    <path id="js-square-brands" d="M55.855,32H6.7A6.845,6.845,0,0,0,0,38.975v51.15A6.845,6.845,0,0,0,6.7,97.1H55.855a6.845,6.845,0,0,0,6.7-6.975V38.975A6.845,6.845,0,0,0,55.855,32ZM34.043,82.772c0,6.336-3.575,9.227-8.783,9.227a9.115,9.115,0,0,1-8.825-5.595l4.79-3.008c.922,1.7,1.759,3.139,3.784,3.139,1.927,0,3.156-.785,3.156-3.851V61.891h5.879V82.772ZM47.951,92c-5.46,0-8.993-2.7-10.71-6.248l4.79-2.877c1.257,2.136,2.9,3.72,5.795,3.72,2.43,0,3.994-1.264,3.994-3.022,0-2.093-1.592-2.834-4.287-4.069l-1.466-.654c-4.245-1.875-7.052-4.243-7.052-9.227,0-4.592,3.365-8.079,8.6-8.079a8.6,8.6,0,0,1,8.35,4.9l-4.58,3.052c-1.005-1.875-2.095-2.616-3.784-2.616A2.6,2.6,0,0,0,44.8,69.491c0,1.831,1.089,2.572,3.617,3.72l1.466.654c5,2.223,7.806,4.5,7.806,9.62,0,5.493-4.161,8.515-9.733,8.515Z" transform="translate(1279.945 104.022)" fill="#fca311"/>
    <path id="c-2" data-name="c" d="M33.771,38.394a11.138,11.138,0,0,1-9.425,5.568,10.633,10.633,0,0,1,0-21.25,11.138,11.138,0,0,1,9.425,5.568c1.345-5.2,4.094-9.532,8.541-12.035A23.842,23.842,0,0,0,24.347,8C10.9,8,0,19.34,0,33.336S10.9,58.673,24.347,58.673a23.842,23.842,0,0,0,17.966-8.245C37.865,47.925,35.116,43.594,33.771,38.394Z" transform="translate(1094.222 562.761)" fill="#1b51a2"/>
    <g id="Rectangle_402" data-name="Rectangle 402" transform="translate(1154.063 582.253)" fill="#1b51a2" stroke="#707070" stroke-width="1">
      <rect width="4.882" height="30.972" rx="2.441" stroke="none"/>
      <rect x="0.5" y="0.5" width="3.882" height="29.972" rx="1.941" fill="none"/>
    </g>
    <g id="Rectangle_403" data-name="Rectangle 403" transform="translate(1168.98 593.9) rotate(90)" fill="#1b51a2" stroke="#707070" stroke-width="1">
      <rect width="5.856" height="25.822" rx="2.928" stroke="none"/>
      <rect x="0.5" y="0.5" width="4.856" height="24.822" rx="2.428" fill="none"/>
    </g>
    <g id="Rectangle_402-2" data-name="Rectangle 402" transform="translate(1185.357 582.253)" fill="#1b51a2" stroke="#707070" stroke-width="1">
      <rect width="4.882" height="30.972" rx="2.441" stroke="none"/>
      <rect x="0.5" y="0.5" width="3.882" height="29.972" rx="1.941" fill="none"/>
    </g>
    <g id="Rectangle_403-2" data-name="Rectangle 403" transform="translate(1200.274 593.9) rotate(90)" fill="#1b51a2" stroke="#707070" stroke-width="1">
      <rect width="5.856" height="25.822" rx="2.928" stroke="none"/>
      <rect x="0.5" y="0.5" width="4.856" height="24.822" rx="2.428" fill="none"/>
    </g>
    <path id="D" d="M36.349,15.211H23.386V1.863Zm-8.578,3.042V30.611c0,6.35-3.334,9.516-10.35,9.516H8.77V8.062h8.651a17.482,17.482,0,0,1,3.024.238V.314A15.33,15.33,0,0,0,17.284,0H0V48.674H17.284q19.253,0,19.257-18.433V18.253Z" transform="translate(1275.948 455.831)" fill="#1b51a2"/>
    <path id="S" d="M24.18,14.694c0-2.12,1.7-2.937,4.421-2.937a28.333,28.333,0,0,1,12.96,3.488V2.481A33.172,33.172,0,0,0,28.609,0C18.042,0,11,5.741,11,15.341c0,15.008,19.8,12.575,19.8,19.048,0,2.509-2.092,3.317-5,3.317-4.311,0-9.882-1.853-14.257-4.325V45.594A34.97,34.97,0,0,0,25.8,48.674c10.832,0,18.294-4.847,18.294-14.6C44.091,17.9,24.18,20.8,24.18,14.694Z" transform="translate(1308.231 455.831)" fill="#1b51a2"/>
    <path id="Path_197" data-name="Path 197" d="M0,39.61,13.357,18.884,1.382,0h9.212l7.83,12.9L26.253,0h9.212L23.49,19.344,36.846,39.61H27.174L18.423,25.792,9.672,39.61ZM40.992,0H55.27a26.1,26.1,0,0,1,7.369.921,11.407,11.407,0,0,1,6.448,3.685,14.847,14.847,0,0,1,3.685,6.448,27.7,27.7,0,0,1,1.382,9.212,22.312,22.312,0,0,1-1.382,8.29,17.343,17.343,0,0,1-4.145,6.909A15.926,15.926,0,0,1,63.1,38.689a27.876,27.876,0,0,1-6.909.921h-15.2Zm7.83,6.909V33.162h5.988c2.3,0,3.685,0,4.606-.461a7.423,7.423,0,0,0,3.224-1.842,12.751,12.751,0,0,0,2.3-3.685c.921-1.842.921-4.145.921-7.369a22.438,22.438,0,0,0-.921-6.909,10.029,10.029,0,0,0-2.3-3.685,9.258,9.258,0,0,0-3.685-1.842c-.921-.461-3.224-.461-6.448-.461Z" transform="translate(924.614 770.635)" fill="#f800c6"/>
    <path id="google-brands" d="M54.735,37.624c0,16.516-10.869,28.27-26.919,28.27C12.428,65.894,0,52.961,0,36.947S12.428,8,27.816,8a26.192,26.192,0,0,1,18.653,7.575L38.9,23.15c-9.9-9.945-28.321-2.474-28.321,13.8,0,10.1,7.75,18.279,17.239,18.279,11.014,0,15.142-8.217,15.792-12.478H27.816V32.792H54.3a26.376,26.376,0,0,1,.437,4.832Z" transform="translate(1110.183 886.499)" fill="url(#linear-gradient)"/>
    <text id="HTML5" transform="translate(909 97)" fill="#fca311" font-size="22" font-family="-apple-system, BlinkMacSystemFont, 'Segoe UI', Roboto, Oxygen, Ubuntu, Cantarell, 'Open Sans', 'Helvetica Neue', sans-serif" letter-spacing="0.02em"><tspan x="-32.12" y="20">HTML5</tspan></text>
    <text id="JS6" transform="translate(1253 97)" fill="#fca311" font-size="22" font-family="-apple-system, BlinkMacSystemFont, 'Segoe UI', Roboto, Oxygen, Ubuntu, Cantarell, 'Open Sans', 'Helvetica Neue', sans-serif" letter-spacing="0.02em"><tspan x="-17.028" y="20">JS6</tspan></text>
    <text id="Soon_Manymore_" data-name="Soon Manymore
" transform="translate(1433 159)" fill="#fca311" font-size="22" font-family="-apple-system, BlinkMacSystemFont, 'Segoe UI', Roboto, Oxygen, Ubuntu, Cantarell, 'Open Sans', 'Helvetica Neue', sans-serif" letter-spacing="0.02em"><tspan x="-22.022" y="20">Soon </tspan><tspan x="-49.324" y="33">Manymore</tspan><tspan x="0" y="46"></tspan></text>
    <text id="Soon_Manymore_2" data-name="Soon Manymore
" transform="translate(1426 475)" fill="#fca311" font-size="22" font-family="-apple-system, BlinkMacSystemFont, 'Segoe UI', Roboto, Oxygen, Ubuntu, Cantarell, 'Open Sans', 'Helvetica Neue', sans-serif" letter-spacing="0.02em"><tspan x="-22.022" y="20">Soon </tspan><tspan x="-49.324" y="33">Manymore</tspan><tspan x="0" y="46"></tspan></text>
    <text id="Soon_Manymore_3" data-name="Soon Manymore
" transform="translate(1351 774)" fill="#fca311" font-size="22" font-family="-apple-system, BlinkMacSystemFont, 'Segoe UI', Roboto, Oxygen, Ubuntu, Cantarell, 'Open Sans', 'Helvetica Neue', sans-serif" letter-spacing="0.02em"><tspan x="-22.022" y="20">Soon </tspan><tspan x="-49.324" y="33">Manymore</tspan><tspan x="0" y="46"></tspan></text>
    <text id="IT_Support_Specialist" data-name="IT Support Specialist" transform="translate(1002.725 963.393)" fill="#fca311" font-size="22" font-family="-apple-system, BlinkMacSystemFont, 'Segoe UI', Roboto, Oxygen, Ubuntu, Cantarell, 'Open Sans', 'Helvetica Neue', sans-serif" letter-spacing="0.02em"><tspan x="-95.282" y="20">IT Support Specialist</tspan></text>
  </g>
</svg>
