<svg xmlns="http://www.w3.org/2000/svg" width="403" height="403" viewBox="0 0 403 403">
  <g id="xd-circle" transform="translate(-681.449 -5650.03)">
    <g id="Group_90" data-name="Group 90">
      <g id="Ellipse_20" data-name="Ellipse 20" transform="translate(681.449 5650.03)" stroke="#fff" stroke-width="10">
        <circle cx="201.5" cy="201.5" r="201.5" stroke="none"/>
        <circle cx="201.5" cy="201.5" r="196.5" fill="none"/>
      </g>
      <g id="XD" transform="translate(761.475 5786.643)">
        <path id="Path_197" data-name="Path 197" d="M0,129.774,43.761,61.869,4.527,0h30.18L60.36,42.252,86.013,0h30.18L76.959,63.378l43.761,66.4H89.031L60.36,84.5l-28.671,45.27ZM134.3,0H181.08c10.563,0,19.617,1.509,24.144,3.018,9.054,1.509,15.09,6.036,21.126,12.072s9.054,12.072,12.072,21.126,4.527,18.108,4.527,30.18q0,15.845-4.527,27.162a56.821,56.821,0,0,1-13.581,22.635c-4.527,4.527-10.563,7.545-18.108,10.563a91.331,91.331,0,0,1-22.635,3.018H134.3Zm25.653,22.635v86.013h19.617c7.545,0,12.072,0,15.09-1.509,4.527-1.509,7.545-3.018,10.563-6.036s4.527-6.036,7.545-12.072,3.018-13.581,3.018-24.144-1.509-18.108-3.018-22.635a32.857,32.857,0,0,0-7.545-12.072c-3.018-3.018-7.545-4.527-12.072-6.036-3.018-1.509-10.563-1.509-21.126-1.509H159.954Z" fill="#c60292"/>
      </g>
    </g>
  </g>
</svg>
